<svg width="22" height="22" viewBox="0 0 22 22" fill="none" xmlns="http://www.w3.org/2000/svg">
<path d="M13.1542 19.0438L8.25 17.325L3.9875 18.975C3.68194 19.0972 3.39931 19.0627 3.13958 18.8714C2.87986 18.6808 2.75 18.425 2.75 18.1042V5.27085C2.75 5.07223 2.80744 4.89654 2.92233 4.74376C3.03661 4.59098 3.19306 4.4764 3.39167 4.40001L7.65417 2.95626C7.85278 2.89515 8.05139 2.86062 8.25 2.85268C8.44861 2.84535 8.64722 2.87987 8.84583 2.95626L13.75 4.67501L18.0125 3.02501C18.3181 2.90279 18.6007 2.93701 18.8604 3.12768C19.1201 3.31896 19.25 3.57501 19.25 3.89585V16.7292C19.25 16.9278 19.1926 17.1035 19.0777 17.2563C18.9634 17.409 18.8069 17.5236 18.6083 17.6L14.3458 19.0438C14.1472 19.1049 13.9486 19.1391 13.75 19.1464C13.5514 19.1544 13.3528 19.1202 13.1542 19.0438ZM12.8333 17.0042V6.27918L9.16667 4.99585V15.7208L12.8333 17.0042ZM14.6667 17.0042L17.4167 16.0875V5.22501L14.6667 6.27918V17.0042ZM4.58333 16.775L7.33333 15.7208V4.99585L4.58333 5.91251V16.775ZM14.6667 6.27918V17.0042V6.27918ZM7.33333 4.99585V15.7208V4.99585Z" fill="white"/>
</svg>
