<svg width="22" height="22" viewBox="0 0 22 22" fill="none" xmlns="http://www.w3.org/2000/svg">
<path d="M9.57917 11.8938L10.7708 13.0854C10.9389 13.2535 11.1528 13.3375 11.4125 13.3375C11.6722 13.3375 11.8861 13.2535 12.0542 13.0854L14.6667 10.4729V11.0229C14.6667 11.2826 14.7547 11.4965 14.9307 11.6646C15.1061 11.8326 15.3236 11.9167 15.5833 11.9167C15.8431 11.9167 16.0606 11.8287 16.236 11.6527C16.412 11.4773 16.5 11.2597 16.5 11V8.25C16.5 7.99028 16.412 7.77242 16.236 7.59642C16.0606 7.42103 15.8431 7.33333 15.5833 7.33333H12.8104C12.5507 7.33333 12.3368 7.42103 12.1687 7.59642C12.0007 7.77242 11.9167 7.99028 11.9167 8.25C11.9167 8.50972 12.0047 8.72728 12.1807 8.90267C12.3561 9.07867 12.5736 9.16667 12.8333 9.16667H13.3604L11.4125 11.1375L10.2208 9.94583C10.0528 9.7625 9.83889 9.67083 9.57917 9.67083C9.31944 9.67083 9.10556 9.7625 8.9375 9.94583L6.14167 12.7417C5.95833 12.9097 5.86667 13.1236 5.86667 13.3833C5.86667 13.6431 5.95833 13.8569 6.14167 14.025C6.30972 14.2083 6.52361 14.3 6.78333 14.3C7.04306 14.3 7.25694 14.2083 7.425 14.025L9.57917 11.8938ZM4.58333 19.25C4.07917 19.25 3.64742 19.0706 3.28808 18.7119C2.92936 18.3526 2.75 17.9208 2.75 17.4167V4.58333C2.75 4.07917 2.92936 3.64742 3.28808 3.28808C3.64742 2.92936 4.07917 2.75 4.58333 2.75H17.4167C17.9208 2.75 18.3526 2.92936 18.7119 3.28808C19.0706 3.64742 19.25 4.07917 19.25 4.58333V17.4167C19.25 17.9208 19.0706 18.3526 18.7119 18.7119C18.3526 19.0706 17.9208 19.25 17.4167 19.25H4.58333ZM4.58333 17.4167H17.4167V4.58333H4.58333V17.4167ZM4.58333 4.58333V17.4167V4.58333Z" fill="white"/>
</svg>
